<svg width="40" height="39" viewBox="0 0 40 39" fill="none" xmlns="http://www.w3.org/2000/svg">
<path d="M16.4582 17.6415C16.287 17.907 16.0056 18.0864 15.6899 18.099C14.8655 18.1318 14.0572 18.0143 13.2651 17.7467C12.3143 17.4254 11.4692 16.9348 10.7299 16.275C10.0135 15.6066 9.48536 14.8162 9.14556 13.9037C8.61038 12.4665 8.49518 11.1456 8.79996 9.94113C9.12756 8.72815 9.72685 7.68674 10.5978 6.8169C11.4917 5.93857 12.5317 5.27854 13.718 4.8368C14.2426 4.64142 14.8185 4.47892 15.4457 4.3493C15.6216 4.31293 15.7971 4.28082 15.9721 4.25298C16.7269 4.13291 17.39 4.69751 17.4961 5.45435C17.6127 6.28691 17.0169 7.04696 16.1964 7.2298C16.1875 7.23177 16.1787 7.23375 16.1698 7.23573C15.6425 7.35418 15.1735 7.48986 14.7628 7.64277C13.9416 7.94859 13.2668 8.36871 12.7385 8.90313C12.2101 9.43756 11.8612 10.0351 11.6915 10.6957C11.5134 11.3335 11.5518 11.9946 11.8066 12.679C12.036 13.2949 12.4152 13.7901 12.9443 14.1646C13.4877 14.5077 14.1011 14.7599 14.7845 14.921C15.4595 15.0593 16.1161 15.1135 16.7544 15.0836C17.2412 15.0429 17.7187 15.6864 17.454 16.097L16.4582 17.6415Z" fill="url(#paint0_linear_101_284)"/>
<mask id="path-2-inside-1_101_284" fill="white">
<path d="M32.2752 27.1141C33.2266 27.3869 33.7893 28.3881 33.3691 29.2842C32.5278 31.0781 31.2227 32.6283 29.5748 33.7661C27.4325 35.2454 24.8436 35.936 22.2492 35.7205C19.6547 35.5049 17.2153 34.3964 15.3466 32.5838C13.4778 30.7713 12.2953 28.3669 12.0006 25.7802C11.7059 23.1936 12.3172 20.5848 13.7303 18.3983C15.1434 16.2118 17.271 14.583 19.7504 13.7893C22.2299 12.9957 24.9078 13.0862 27.328 14.0457C29.1895 14.7836 30.8099 16.0006 32.0332 17.5592C32.6442 18.3378 32.3211 19.4399 31.4555 19.9197C30.5899 20.3995 29.5123 20.0674 28.845 19.3364C28.0652 18.4821 27.0968 17.8093 26.0072 17.3774C24.3578 16.7235 22.5328 16.6618 20.8431 17.2027C19.1533 17.7436 17.7034 18.8536 16.7403 20.3437C15.7773 21.8338 15.3607 23.6117 15.5615 25.3745C15.7624 27.1373 16.5682 28.7759 17.8418 30.0112C19.1154 31.2464 20.7778 32.0019 22.546 32.1488C24.3141 32.2957 26.0784 31.825 27.5384 30.8169C28.503 30.1509 29.2952 29.2775 29.8629 28.2697C30.3486 27.4074 31.3239 26.8413 32.2752 27.1141Z"/>
</mask>
<path d="M32.2752 27.1141C33.2266 27.3869 33.7893 28.3881 33.3691 29.2842C32.5278 31.0781 31.2227 32.6283 29.5748 33.7661C27.4325 35.2454 24.8436 35.936 22.2492 35.7205C19.6547 35.5049 17.2153 34.3964 15.3466 32.5838C13.4778 30.7713 12.2953 28.3669 12.0006 25.7802C11.7059 23.1936 12.3172 20.5848 13.7303 18.3983C15.1434 16.2118 17.271 14.583 19.7504 13.7893C22.2299 12.9957 24.9078 13.0862 27.328 14.0457C29.1895 14.7836 30.8099 16.0006 32.0332 17.5592C32.6442 18.3378 32.3211 19.4399 31.4555 19.9197C30.5899 20.3995 29.5123 20.0674 28.845 19.3364C28.0652 18.4821 27.0968 17.8093 26.0072 17.3774C24.3578 16.7235 22.5328 16.6618 20.8431 17.2027C19.1533 17.7436 17.7034 18.8536 16.7403 20.3437C15.7773 21.8338 15.3607 23.6117 15.5615 25.3745C15.7624 27.1373 16.5682 28.7759 17.8418 30.0112C19.1154 31.2464 20.7778 32.0019 22.546 32.1488C24.3141 32.2957 26.0784 31.825 27.5384 30.8169C28.503 30.1509 29.2952 29.2775 29.8629 28.2697C30.3486 27.4074 31.3239 26.8413 32.2752 27.1141Z" stroke="url(#paint1_linear_101_284)" stroke-width="3.98327" mask="url(#path-2-inside-1_101_284)"/>
<circle cx="32.4678" cy="23.4673" r="1.19498" transform="rotate(16 32.4678 23.4673)" stroke="black" stroke-width="0.796653"/>
<circle cx="32.4678" cy="23.4673" r="1.19498" transform="rotate(16 32.4678 23.4673)" stroke="url(#paint2_linear_101_284)" stroke-width="0.796653"/>
<circle cx="21.7341" cy="5.2647" r="1.19498" transform="rotate(16 21.7341 5.2647)" stroke="black" stroke-width="0.796653"/>
<circle cx="21.7341" cy="5.2647" r="1.19498" transform="rotate(16 21.7341 5.2647)" stroke="url(#paint3_linear_101_284)" stroke-width="0.796653"/>
<defs>
<linearGradient id="paint0_linear_101_284" x1="7.66504" y1="1.0358" x2="51.6907" y2="16.9487" gradientUnits="userSpaceOnUse">
<stop stop-color="#A854E9"/>
<stop offset="1" stop-color="#4F91FC"/>
</linearGradient>
<linearGradient id="paint1_linear_101_284" x1="19.9735" y1="4.1824" x2="70.6795" y2="81.892" gradientUnits="userSpaceOnUse">
<stop stop-color="#A854E9"/>
<stop offset="1" stop-color="#4F91FC"/>
</linearGradient>
<linearGradient id="paint2_linear_101_284" x1="31.238" y1="20.8263" x2="41.1724" y2="29.4242" gradientUnits="userSpaceOnUse">
<stop stop-color="#A854E9"/>
<stop offset="1" stop-color="#4F91FC"/>
</linearGradient>
<linearGradient id="paint3_linear_101_284" x1="20.5043" y1="2.62363" x2="30.4387" y2="11.2216" gradientUnits="userSpaceOnUse">
<stop stop-color="#A854E9"/>
<stop offset="1" stop-color="#4F91FC"/>
</linearGradient>
</defs>
</svg>
