<svg width="13" height="7" viewBox="0 0 13 7" fill="none" xmlns="http://www.w3.org/2000/svg">
<path d="M6.44902 6.69038C6.31569 6.69038 6.18636 6.66538 6.06102 6.61538C5.93569 6.56538 5.83169 6.49871 5.74902 6.41538L1.14902 1.81538C0.96569 1.63205 0.874023 1.39871 0.874023 1.11538C0.874023 0.832047 0.96569 0.598714 1.14902 0.41538C1.33236 0.232047 1.56569 0.140381 1.84902 0.140381C2.13236 0.140381 2.36569 0.232047 2.54902 0.41538L6.44902 4.31538L10.349 0.41538C10.5324 0.232047 10.7657 0.140381 11.049 0.140381C11.3324 0.140381 11.5657 0.232047 11.749 0.41538C11.9324 0.598714 12.024 0.832047 12.024 1.11538C12.024 1.39871 11.9324 1.63205 11.749 1.81538L7.14902 6.41538C7.04902 6.51538 6.94069 6.58638 6.82402 6.62838C6.70736 6.67038 6.58236 6.69105 6.44902 6.69038Z" fill="#131200"/>
</svg>
